<svg xmlns="http://www.w3.org/2000/svg" viewBox="0 0 350 450" fill="none" stroke="#802336" stroke-width="1.1" stroke-linecap="round" stroke-linejoin="round" opacity="0.25">
  <!-- Cascading Silver Dollar Eucalyptus Branch -->
  <path d="M 180 430 Q 170 300 190 200 Q 210 100 160 30" />
  
  <!-- Rounded Eucalyptus Leaves with Midribs -->
  <ellipse cx="140" cy="80" rx="32" ry="24" transform="rotate(-25 140 80)" />
  <path d="M 175 60 Q 140 80 115 90" stroke-width="0.7" />
  
  <ellipse cx="230" cy="110" rx="35" ry="26" transform="rotate(30 230 110)" />
  <path d="M 195 105 Q 230 110 255 120" stroke-width="0.7" />

  <ellipse cx="120" cy="160" rx="38" ry="28" transform="rotate(-35 120 160)" />
  <path d="M 180 155 Q 120 160 90 170" stroke-width="0.7" />

  <ellipse cx="245" cy="200" rx="40" ry="30" transform="rotate(20 245 200)" />
  <path d="M 185 195 Q 245 200 280 210" stroke-width="0.7" />

  <ellipse cx="110" cy="260" rx="42" ry="32" transform="rotate(-20 110 260)" />
  <path d="M 175 250 Q 110 260 75 270" stroke-width="0.7" />

  <ellipse cx="240" cy="300" rx="44" ry="32" transform="rotate(35 240 300)" />
  <path d="M 175 295 Q 240 300 275 315" stroke-width="0.7" />

  <ellipse cx="125" cy="360" rx="40" ry="30" transform="rotate(-40 125 360)" />
  <path d="M 175 350 Q 125 360 90 375" stroke-width="0.7" />

  <!-- Delicate Seed Pods / Berries -->
  <circle cx="178" cy="130" r="3" fill="#A6865B" stroke="none" opacity="0.6" />
  <circle cx="188" cy="136" r="2.5" fill="#A6865B" stroke="none" opacity="0.6" />
  <circle cx="182" cy="225" r="3.2" fill="#A6865B" stroke="none" opacity="0.6" />
  <circle cx="172" cy="232" r="2.5" fill="#A6865B" stroke="none" opacity="0.6" />
</svg>
